<svg width="60" height="60" viewBox="0 0 60 60" fill="none" xmlns="http://www.w3.org/2000/svg">
<g id="Group 3">
<circle id="Ellipse 1" cx="30" cy="30" r="30" transform="matrix(-1 0 0 1 60 0)" fill="#FDCE00"/>
<path id="Vector" d="M19.5842 27.9166H35.4033L28.5254 21.0681C28.133 20.6761 27.9125 20.1445 27.9125 19.5901C27.9125 19.0358 28.133 18.5042 28.5254 18.1122C28.9179 17.7202 29.4502 17.5 30.0052 17.5C30.5602 17.5 31.0925 17.7202 31.485 18.1122L41.906 28.5203C42.0957 28.7182 42.2445 28.9517 42.3437 29.2072C42.5521 29.714 42.5521 30.2824 42.3437 30.7892C42.2445 31.0448 42.0957 31.2782 41.906 31.4762L31.485 41.8843C31.2912 42.0794 31.0607 42.2342 30.8067 42.3399C30.5528 42.4456 30.2803 42.5 30.0052 42.5C29.7301 42.5 29.4576 42.4456 29.2037 42.3399C28.9497 42.2342 28.7192 42.0794 28.5254 41.8843C28.3301 41.6907 28.175 41.4605 28.0692 41.2069C27.9634 40.9532 27.9089 40.6811 27.9089 40.4063C27.9089 40.1315 27.9634 39.8594 28.0692 39.6058C28.175 39.3521 28.3301 39.1219 28.5254 38.9284L35.4033 32.0798H19.5842C19.0314 32.0798 18.5013 31.8605 18.1104 31.4701C17.7196 31.0798 17.5 30.5503 17.5 29.9982C17.5 29.4461 17.7196 28.9167 18.1104 28.5263C18.5013 28.1359 19.0314 27.9166 19.5842 27.9166Z" fill="#0E0E0E"/>
</g>
</svg>
